<?xml version="1.0" standalone="no"?>
<!DOCTYPE svg PUBLIC "-//W3C//DTD SVG 20010904//EN"
 "http://www.w3.org/TR/2001/REC-SVG-20010904/DTD/svg10.dtd">
<svg version="1.0" xmlns="http://www.w3.org/2000/svg"
 width="400.000000pt" height="400.000000pt" viewBox="0 0 400.000000 400.000000"
 preserveAspectRatio="xMidYMid meet">

<g transform="translate(0.000000,400.000000) scale(0.100000,-0.100000)"
fill="#007BA7" stroke="none">
<path d="M1855 3744 c-16 -2 -66 -9 -110 -15 -187 -24 -436 -118 -605 -227
-296 -191 -525 -488 -636 -821 -37 -111 -37 -111 -69 -111 -67 0 -201 -32
-257 -62 -129 -69 -152 -149 -128 -441 22 -258 94 -443 215 -550 87 -76 271
-104 499 -76 50 7 93 13 95 15 2 2 -10 25 -27 53 -73 119 -128 262 -162 421
-28 134 -28 396 0 530 27 126 53 206 105 315 244 511 783 815 1343 756 174
-18 309 -58 465 -137 360 -181 610 -503 704 -906 22 -99 26 -135 26 -288 0
-128 -5 -197 -17 -255 -29 -133 -85 -288 -142 -391 -29 -54 -53 -98 -51 -99 1
-1 43 -7 93 -14 185 -23 351 -8 444 39 102 52 196 196 239 366 24 94 45 322
39 432 -8 176 -104 257 -334 285 l-90 11 -33 100 c-153 468 -519 836 -988 992
-59 20 -155 45 -213 56 -100 18 -341 31 -405 22z"/>
<path d="M1760 3301 c-47 -10 -97 -23 -112 -29 l-28 -12 0 -115 c0 -63 -3
-115 -6 -115 -3 0 -44 35 -91 79 l-86 79 -36 -21 c-47 -28 -181 -128 -181
-136 0 -3 21 -52 47 -109 25 -56 44 -105 40 -108 -3 -3 -56 11 -116 32 -61 20
-112 36 -114 33 -41 -50 -127 -200 -127 -222 0 -8 15 -26 33 -40 65 -51 142
-126 135 -132 -3 -4 -55 -11 -115 -16 -59 -5 -113 -11 -119 -13 -12 -5 -30
-93 -39 -197 l-5 -65 125 -39 c69 -21 125 -41 125 -45 0 -5 -7 -11 -16 -14 -9
-4 -61 -31 -114 -61 l-97 -54 14 -58 c19 -82 42 -149 75 -218 l28 -60 501
-167 501 -166 206 69 c114 38 339 113 501 167 l293 97 28 55 c29 57 74 190 85
250 l6 35 -108 60 c-59 33 -106 65 -103 70 4 10 93 40 189 65 l44 12 -6 92
c-6 110 -24 176 -46 176 -42 1 -224 20 -228 24 -5 5 72 78 134 127 23 19 42
39 42 45 1 12 -115 210 -128 218 -5 4 -59 -10 -121 -30 -61 -20 -113 -34 -115
-32 -3 3 17 53 44 113 l48 109 -49 38 c-26 21 -76 56 -110 78 l-61 39 -85 -80
c-47 -43 -89 -79 -95 -79 -6 0 -8 42 -5 116 l5 115 -26 11 c-36 14 -213 49
-230 46 -8 -2 -33 -48 -55 -102 -23 -55 -46 -101 -51 -103 -6 -1 -30 44 -54
102 -50 120 -37 113 -171 86z"/>
<path d="M1473 912 l507 -507 507 507 508 508 -507 -169 -507 -169 -463 155
c-255 85 -483 161 -508 168 -41 13 -6 -24 463 -493z"/>
</g>
</svg>
